{
	"asset":{
		"generator":"Khronos glTF Blender I/O v4.4.56",
		"version":"2.0"
	},
	"scene":0,
	"scenes":[
		{
			"name":"Scene",
			"nodes":[
				0,
				1,
				2
			]
		}
	],
	"nodes":[
		{
			"mesh":0,
			"name":"rook",
			"translation":[
				-6,
				0,
				0
			]
		},
		{
			"mesh":1,
			"name":"pawn",
			"translation":[
				-4,
				0,
				0
			]
		},
		{
			"mesh":2,
			"name":"bishop",
			"translation":[
				-5,
				0,
				0
			]
		}
	],
	"meshes":[
		{
			"name":"Cylinder.001",
			"primitives":[
				{
					"attributes":{
						"POSITION":0,
						"NORMAL":1,
						"TEXCOORD_0":2
					},
					"indices":3
				}
			]
		},
		{
			"name":"Cylinder.002",
			"primitives":[
				{
					"attributes":{
						"POSITION":4,
						"NORMAL":5,
						"TEXCOORD_0":6
					},
					"indices":7
				}
			]
		},
		{
			"name":"Cylinder.004",
			"primitives":[
				{
					"attributes":{
						"POSITION":8,
						"NORMAL":9,
						"TEXCOORD_0":10
					},
					"indices":11
				}
			]
		}
	],
	"accessors":[
		{
			"bufferView":0,
			"componentType":5126,
			"count":320,
			"max":[
				0.3106875419616699,
				1.127040147781372,
				0.31068938970565796
			],
			"min":[
				-0.31069135665893555,
				0,
				-0.31068938970565796
			],
			"type":"VEC3"
		},
		{
			"bufferView":1,
			"componentType":5126,
			"count":320,
			"type":"VEC3"
		},
		{
			"bufferView":2,
			"componentType":5126,
			"count":320,
			"type":"VEC2"
		},
		{
			"bufferView":3,
			"componentType":5123,
			"count":1572,
			"type":"SCALAR"
		},
		{
			"bufferView":4,
			"componentType":5126,
			"count":338,
			"max":[
				0.2742586135864258,
				0.9279564619064331,
				0.2743210792541504
			],
			"min":[
				-0.274383544921875,
				0,
				-0.2743210792541504
			],
			"type":"VEC3"
		},
		{
			"bufferView":5,
			"componentType":5126,
			"count":338,
			"type":"VEC3"
		},
		{
			"bufferView":6,
			"componentType":5126,
			"count":338,
			"type":"VEC2"
		},
		{
			"bufferView":7,
			"componentType":5123,
			"count":1722,
			"type":"SCALAR"
		},
		{
			"bufferView":8,
			"componentType":5126,
			"count":647,
			"max":[
				0.2747044563293457,
				1.4292197227478027,
				0.27215343713760376
			],
			"min":[
				-0.26960229873657227,
				0,
				-0.27215346693992615
			],
			"type":"VEC3"
		},
		{
			"bufferView":9,
			"componentType":5126,
			"count":647,
			"type":"VEC3"
		},
		{
			"bufferView":10,
			"componentType":5126,
			"count":647,
			"type":"VEC2"
		},
		{
			"bufferView":11,
			"componentType":5123,
			"count":3198,
			"type":"SCALAR"
		}
	],
	"bufferViews":[
		{
			"buffer":0,
			"byteLength":3840,
			"byteOffset":0,
			"target":34962
		},
		{
			"buffer":0,
			"byteLength":3840,
			"byteOffset":3840,
			"target":34962
		},
		{
			"buffer":0,
			"byteLength":2560,
			"byteOffset":7680,
			"target":34962
		},
		{
			"buffer":0,
			"byteLength":3144,
			"byteOffset":10240,
			"target":34963
		},
		{
			"buffer":0,
			"byteLength":4056,
			"byteOffset":13384,
			"target":34962
		},
		{
			"buffer":0,
			"byteLength":4056,
			"byteOffset":17440,
			"target":34962
		},
		{
			"buffer":0,
			"byteLength":2704,
			"byteOffset":21496,
			"target":34962
		},
		{
			"buffer":0,
			"byteLength":3444,
			"byteOffset":24200,
			"target":34963
		},
		{
			"buffer":0,
			"byteLength":7764,
			"byteOffset":27644,
			"target":34962
		},
		{
			"buffer":0,
			"byteLength":7764,
			"byteOffset":35408,
			"target":34962
		},
		{
			"buffer":0,
			"byteLength":5176,
			"byteOffset":43172,
			"target":34962
		},
		{
			"buffer":0,
			"byteLength":6396,
			"byteOffset":48348,
			"target":34963
		}
	],
	"buffers":[
		{
			"byteLength":54744,
			"uri":"pieces.bin"
		}
	]
}
